<?xml version="1.0" encoding="utf-8"?>
<!-- Generator: Adobe Illustrator 19.0.0, SVG Export Plug-In . SVG Version: 6.00 Build 0)  -->
<svg version="1.1" id="Layer_1" xmlns="http://www.w3.org/2000/svg" xmlns:xlink="http://www.w3.org/1999/xlink" x="0px" y="0px"
	 width="280px" height="280px" viewBox="0 0 280 280" style="enable-background:new 0 0 280 280;" xml:space="preserve">
<style type="text/css">
	.st0{fill:#CCCCCC;}
	.st1{fill:url(#XMLID_11_);}
</style>
<g id="XMLID_1_">
	<rect id="XMLID_2_" x="185.03" y="268.5" class="st0" width="2.45" height="5.5"/>
	<rect id="XMLID_3_" x="92.51" y="268.5" class="st0" width="2.46" height="5.5"/>
	<rect id="XMLID_4_" x="6" y="185.03" class="st0" width="5.5" height="2.46"/>
	<rect id="XMLID_5_" x="6" y="92.52" class="st0" width="5.5" height="2.45"/>
	<rect id="XMLID_6_" x="268.5" y="185.03" class="st0" width="5.5" height="2.46"/>
	<rect id="XMLID_7_" x="268.5" y="92.51" class="st0" width="5.5" height="2.46"/>
	<path id="XMLID_21_" class="st0" d="M246.77,185.03c-0.62,0-1.14-0.31-1.43-0.84c-0.15-0.27-0.22-0.57-0.21-0.87
		c0.01-0.3,0.11-0.6,0.28-0.87c1.5-2.35,2.33-5.08,2.39-7.88c0.01-0.4,0-0.8-0.02-1.21c-0.16-2.9-1.26-5.75-3.17-8.23
		c-2.77-3.59-6.93-5.89-11.15-6.15c-0.29-0.02-0.57-0.03-0.84-0.03l-0.1,0c-0.11,0-0.22,0-0.32,0.01l-0.33,0.01
		c-0.21,0.01-0.41,0.02-0.64,0.04l-0.12,0.01c-0.52,0.05-1.03,0.12-1.51,0.21l-0.1,0.02c-0.21,0.04-0.42,0.09-0.63,0.14l-0.2,0.05
		c-0.18,0.05-0.35,0.09-0.52,0.14l-0.24,0.07c-0.16,0.05-0.32,0.1-0.49,0.16l-0.25,0.09c-0.15,0.06-0.3,0.11-0.45,0.17l-0.25,0.11
		c-0.14,0.06-0.28,0.12-0.43,0.19l-0.25,0.12c-0.14,0.07-0.27,0.14-0.4,0.21l-0.27,0.15c-0.13,0.07-0.26,0.15-0.39,0.23l-0.26,0.16
		c-0.13,0.08-0.25,0.16-0.38,0.25l-0.25,0.17c-0.13,0.09-0.25,0.18-0.44,0.32l-0.16,0.12c-0.14,0.11-0.27,0.22-0.46,0.37l-0.13,0.11
		c-0.19,0.16-0.39,0.33-0.57,0.51c-3.11,2.92-4.82,6.87-4.82,11.14c0,2.95,0.84,5.8,2.43,8.27c0.32,0.5,0.34,1.09,0.05,1.63
		c-0.31,0.57-0.86,0.9-1.5,0.9h-30.72v-30.72c0-1.52-0.83-2.92-2.18-3.65c-1.33-0.72-2.87-0.67-4.13,0.14
		c-2.06,1.33-4.46,2.04-6.94,2.04c-3.58,0-6.9-1.44-9.35-4.04c-2.45-2.61-3.68-6.02-3.45-9.6c0.38-6.16,5.91-11.64,12.07-11.99
		c2.72-0.16,5.35,0.54,7.63,1.99c1.3,0.83,2.89,0.89,4.24,0.15c1.33-0.73,2.12-2.07,2.12-3.58V94.97h30.73c0.07,0,0.13,0,0.27-0.02
		c0.1,0,0.2-0.01,0.33-0.03c1.28-0.19,2.42-0.99,3.05-2.13c0.72-1.33,0.67-2.87-0.14-4.13c-1.33-2.07-2.04-4.47-2.04-6.94
		c0-3.58,1.44-6.9,4.04-9.35c2.61-2.45,6.01-3.67,9.61-3.45c5.73,0.36,10.94,5.16,11.86,10.94c0.06,0.37,0.1,0.75,0.12,1.13
		c0.15,2.72-0.54,5.35-1.99,7.63c-0.2,0.32-0.36,0.66-0.48,1.02c-0.11,0.35-0.17,0.71-0.19,1.08c-0.03,0.74,0.15,1.48,0.51,2.14
		c0.15,0.28,0.35,0.55,0.55,0.77c0.03,0.04,0.07,0.08,0.09,0.11l0.2,0.18c0.07,0.07,0.14,0.13,0.19,0.17l0.09,0.07
		c0.12,0.09,0.24,0.18,0.45,0.3c0.13,0.07,0.26,0.14,0.41,0.21l0.11,0.04c0.13,0.05,0.26,0.1,0.4,0.14c0.05,0.01,0.1,0.02,0.14,0.03
		c0.13,0.03,0.26,0.06,0.4,0.08l0.27,0.02c0.09,0.01,0.19,0.02,0.28,0.02h15.73v-2.46h-15.73l-0.21-0.01l-0.11,0.45
		c-0.02,0-0.04-0.01-0.06-0.01l0.06-0.46l-0.14-0.03c-0.42-0.12-0.76-0.39-0.97-0.78c-0.31-0.56-0.28-1.19,0.07-1.74
		c1.73-2.71,2.55-5.85,2.37-9.08c-0.01-0.23-0.03-0.46-0.06-0.69c-0.77-7.11-7.15-13.25-14.23-13.69c-0.3-0.02-0.61-0.03-0.98-0.03
		l-0.67,0.02c-0.15,0.01-0.31,0.02-0.54,0.03l-0.22,0.02c-0.19,0.02-0.39,0.04-0.65,0.08l-0.19,0.03c-0.22,0.03-0.43,0.07-0.64,0.11
		l-0.2,0.04l0.1,0.45c-0.03,0.01-0.05,0.01-0.07,0.02l-0.16-0.43c-0.13,0.03-0.26,0.06-0.4,0.09l-0.31,0.08
		c-0.14,0.04-0.27,0.07-0.42,0.11l-0.31,0.1c-0.13,0.04-0.26,0.08-0.39,0.13l-0.32,0.12c-0.13,0.05-0.26,0.1-0.38,0.15l-0.31,0.13
		c-0.13,0.05-0.25,0.11-0.37,0.17l-0.31,0.15c-0.12,0.06-0.24,0.12-0.37,0.19l-0.29,0.16c-0.12,0.07-0.24,0.14-0.39,0.23l-0.25,0.15
		c-0.12,0.08-0.24,0.16-0.41,0.27l-0.22,0.15c-0.12,0.09-0.25,0.18-0.44,0.32l-0.17,0.13c-0.11,0.09-0.22,0.17-0.4,0.32l-0.19,0.16
		c-0.19,0.16-0.38,0.33-0.57,0.51c-3.11,2.92-4.82,6.88-4.82,11.14c0,2.95,0.84,5.81,2.43,8.27c0.32,0.5,0.34,1.09,0.05,1.63
		c-0.07,0.12-0.15,0.23-0.28,0.38c-0.03,0.03-0.06,0.05-0.11,0.09l-0.07,0.06l0.29,0.35c-0.02,0.01-0.03,0.03-0.05,0.04l-0.33-0.33
		l-0.25,0.15l0.13,0.44c-0.02,0.01-0.04,0.02-0.06,0.02l-0.18-0.42l-0.11,0.04l-31.2,0.07V61.79c0-1.52-0.83-2.92-2.18-3.65
		c-1.33-0.72-2.87-0.67-4.13,0.14c-2.07,1.33-4.46,2.04-6.94,2.04c-1.33,0-2.64-0.2-3.89-0.59c-2.06-0.65-3.95-1.84-5.46-3.45
		c-0.8-0.85-1.48-1.81-2.02-2.84c-1.08-2.06-1.58-4.4-1.43-6.77c0.08-1.31,0.4-2.61,0.94-3.87c1.97-4.59,6.44-7.86,11.13-8.12
		c2.71-0.15,5.35,0.54,7.63,1.99c0.16,0.1,0.33,0.19,0.49,0.27c1.09,0.51,2.34,0.52,3.49,0c0.08-0.04,0.17-0.07,0.25-0.12
		c0.33-0.18,0.62-0.4,0.88-0.65c0.1-0.1,0.19-0.2,0.27-0.29l0.1-0.11c0.53-0.67,0.83-1.5,0.86-2.38l0-15.88h-2.45v15.73
		c0,0.21-0.04,0.42-0.13,0.65c-0.14,0.33-0.39,0.6-0.72,0.78c-0.05,0.03-0.11,0.05-0.16,0.07c-0.52,0.22-1.09,0.16-1.57-0.14
		c-2.71-1.73-5.86-2.55-9.08-2.37c-2.53,0.14-5.06,1.01-7.32,2.52c-2.21,1.48-4.04,3.47-5.3,5.78l-0.06,0.1
		c-0.21,0.4-0.41,0.8-0.58,1.21c-0.65,1.52-1.03,3.09-1.13,4.67c-0.2,3.18,0.56,6.27,2.21,8.94c0.54,0.89,1.19,1.73,1.91,2.49
		c2.92,3.11,6.87,4.82,11.14,4.82c2.94,0,5.8-0.84,8.27-2.43c0.5-0.32,1.09-0.34,1.63-0.05c0.57,0.31,0.9,0.86,0.9,1.5v30.72h-30.78
		c-0.62,0-1.14-0.31-1.43-0.84c-0.31-0.56-0.28-1.19,0.07-1.74c1.73-2.71,2.55-5.85,2.37-9.08c-0.41-7.34-6.95-13.93-14.29-14.38
		c-0.33-0.02-0.66-0.03-0.98-0.03c-3.9,0-7.61,1.47-10.46,4.15c-3.11,2.92-4.82,6.88-4.82,11.14c0,2.94,0.84,5.8,2.43,8.27
		c0.32,0.5,0.34,1.09,0.05,1.63c-0.31,0.57-0.86,0.9-1.5,0.9H94.97V61.79c0-1.52-0.83-2.92-2.18-3.65
		c-1.33-0.72-2.87-0.67-4.13,0.14c-2.07,1.33-4.47,2.04-6.94,2.04c-1.33,0-2.64-0.2-3.89-0.59c-2.06-0.65-3.95-1.84-5.46-3.45
		c-0.62-0.66-1.18-1.39-1.65-2.17c-1.34-2.22-1.97-4.79-1.81-7.43c0.08-1.3,0.4-2.61,0.94-3.87c1.97-4.59,6.44-7.86,11.13-8.12
		c2.72-0.15,5.36,0.54,7.63,1.99c0.16,0.1,0.33,0.19,0.5,0.27c1.21,0.57,2.57,0.52,3.74-0.12c1.15-0.63,1.91-1.73,2.08-3.03
		c0.02-0.18,0.04-0.36,0.04-0.55V17.5h-2.46v15.73c0,0.62-0.31,1.14-0.84,1.43c-0.56,0.31-1.19,0.28-1.73-0.07
		c-2.71-1.73-5.85-2.55-9.08-2.37c-2.53,0.14-5.06,1.01-7.32,2.52c-2.21,1.48-4.04,3.47-5.3,5.78l-0.06,0.1
		c-0.21,0.4-0.41,0.8-0.58,1.21c-0.65,1.52-1.03,3.09-1.13,4.67c-0.2,3.18,0.56,6.27,2.2,8.94c0.54,0.89,1.19,1.73,1.91,2.49
		c2.92,3.11,6.88,4.82,11.14,4.82c2.94,0,5.8-0.84,8.27-2.43c0.5-0.32,1.09-0.34,1.63-0.05c0.57,0.31,0.9,0.86,0.9,1.5v30.72H61.79
		c-1.52,0-2.92,0.83-3.65,2.18c-0.72,1.33-0.67,2.87,0.14,4.13c1.33,2.07,2.04,4.47,2.04,6.94c0,1.33-0.2,2.64-0.59,3.89
		c-0.65,2.06-1.84,3.95-3.45,5.46c-2.52,2.37-5.81,3.6-9.28,3.47l-0.32-0.01c-1.3-0.08-2.6-0.4-3.87-0.94
		c-4.59-1.97-7.86-6.44-8.12-11.13c-0.15-2.72,0.54-5.35,1.99-7.63c0.2-0.32,0.36-0.66,0.48-1.02c0.34-1.08,0.22-2.22-0.32-3.22
		c-0.18-0.33-0.4-0.62-0.65-0.89c-0.1-0.1-0.2-0.19-0.29-0.26l-0.11-0.1c-0.67-0.53-1.5-0.83-2.38-0.86l-15.89,0v2.45h15.73
		c0.21,0,0.42,0.04,0.65,0.13c0.33,0.14,0.6,0.39,0.78,0.71c0.26,0.48,0.28,1.03,0.05,1.52c-0.03,0.07-0.07,0.14-0.12,0.21
		c-1.73,2.71-2.55,5.85-2.37,9.08c0.14,2.53,1.01,5.06,2.52,7.32c1.48,2.21,3.47,4.04,5.78,5.3c0.23,0.12,0.46,0.24,0.69,0.36
		c0.21,0.1,0.41,0.19,0.63,0.28c1.52,0.65,3.09,1.03,4.67,1.13c0.3,0.02,0.61,0.03,0.98,0.03l0.67-0.02c0.12,0,0.24-0.01,0.36-0.02
		l0-0.46c0.03,0,0.06,0,0.09-0.01l0.08,0.46l0.23-0.02c0.18-0.02,0.35-0.04,0.53-0.06l0.34-0.05c0.2-0.03,0.4-0.06,0.61-0.1
		l0.32-0.07c0.14-0.03,0.28-0.06,0.42-0.09l0.31-0.08c0.14-0.04,0.27-0.07,0.41-0.11l0.3-0.09c0.14-0.04,0.27-0.09,0.41-0.13
		l0.31-0.11c0.13-0.05,0.27-0.1,0.4-0.15l0.3-0.13c0.13-0.06,0.26-0.12,0.39-0.18l0.29-0.14c0.13-0.06,0.26-0.13,0.38-0.2l0.28-0.15
		c0.13-0.07,0.25-0.14,0.45-0.26l0.19-0.12c0.13-0.08,0.25-0.16,0.44-0.29l0.19-0.12c0.13-0.09,0.26-0.18,0.44-0.32l0.17-0.13
		c0.14-0.11,0.27-0.22,0.46-0.37l0.13-0.11c0.19-0.16,0.38-0.33,0.57-0.51c3.11-2.92,4.82-6.88,4.82-11.14
		c0-2.94-0.84-5.8-2.43-8.27c-0.32-0.5-0.34-1.09-0.05-1.63c0.31-0.57,0.86-0.9,1.5-0.9h30.72v30.78c0,0.62-0.31,1.14-0.84,1.43
		c-0.56,0.31-1.19,0.28-1.73-0.07c-2.71-1.73-5.85-2.55-9.08-2.37c-7.34,0.41-13.93,6.95-14.38,14.29
		c-0.27,4.27,1.2,8.33,4.11,11.44c2.92,3.11,6.88,4.82,11.14,4.82c2.94,0,5.8-0.84,8.27-2.43c0.5-0.32,1.09-0.34,1.63-0.05
		c0.57,0.31,0.9,0.86,0.9,1.5v30.72H61.79c-1.52,0-2.92,0.83-3.65,2.18c-0.72,1.33-0.67,2.87,0.14,4.13
		c1.33,2.07,2.04,4.47,2.04,6.94c0,1.33-0.2,2.64-0.59,3.89c-0.65,2.06-1.84,3.95-3.45,5.46c-2.48,2.33-5.75,3.58-9.23,3.47
		c-0.13,0-0.25-0.01-0.38-0.01c-1.3-0.08-2.61-0.4-3.87-0.94c-4.59-1.97-7.86-6.44-8.12-11.13c-0.15-2.72,0.54-5.35,1.99-7.63
		c0.2-0.32,0.36-0.66,0.48-1.02c0.11-0.35,0.17-0.72,0.19-1.08c0.03-0.74-0.15-1.48-0.51-2.14c-0.63-1.15-1.74-1.91-3.03-2.08
		c-0.18-0.02-0.37-0.04-0.56-0.04H17.5v2.46h15.73c0.62,0,1.14,0.31,1.43,0.84c0.26,0.48,0.28,1.02,0.05,1.52
		c-0.03,0.07-0.07,0.14-0.12,0.21c-1.5,2.35-2.33,5.08-2.39,7.88c-0.01,0.4,0,0.8,0.02,1.21c0.14,2.53,1.01,5.06,2.52,7.32
		c1.48,2.21,3.47,4.04,5.77,5.29c0.23,0.13,0.46,0.25,0.69,0.36c0.21,0.1,0.42,0.2,0.63,0.29c1.52,0.65,3.09,1.03,4.71,1.13
		c0.29,0.02,0.57,0.03,0.94,0.03l0.66-0.02c0.17-0.01,0.33-0.02,0.57-0.04l0.19-0.01c0.21-0.02,0.42-0.04,0.72-0.08l0.1-0.01
		c0.22-0.03,0.44-0.07,0.66-0.11l0.34-0.07c0.13-0.03,0.26-0.05,0.38-0.09l0.37-0.1c0.12-0.03,0.23-0.06,0.34-0.09l1.41-0.49
		c0.11-0.04,0.22-0.09,0.33-0.14l0.68-0.31c0.12-0.06,0.24-0.12,0.4-0.2l0.26-0.14c0.12-0.07,0.24-0.13,0.42-0.24l0.23-0.14
		c0.12-0.07,0.23-0.15,0.37-0.24l0.26-0.17c0.1-0.07,0.2-0.15,0.31-0.22l-0.27-0.37c0.02-0.01,0.04-0.03,0.05-0.04l0.32,0.33
		l0.2-0.15c0.13-0.1,0.26-0.21,0.44-0.36l0.14-0.12c0.19-0.16,0.38-0.33,0.57-0.51c3.11-2.92,4.82-6.88,4.82-11.14
		c0-2.94-0.84-5.8-2.43-8.27c-0.32-0.5-0.34-1.09-0.05-1.63c0.31-0.57,0.86-0.9,1.5-0.9h30.72v30.72c0,1.52,0.83,2.92,2.18,3.65
		c1.33,0.72,2.87,0.67,4.13-0.14c2.07-1.33,4.47-2.04,6.94-2.04c1.33,0,2.64,0.2,3.89,0.59c2.06,0.65,3.95,1.84,5.46,3.45
		c0.8,0.85,1.48,1.81,2.02,2.84c1.08,2.06,1.58,4.4,1.43,6.77c-0.25,4.04-2.86,8.08-6.64,10.3c-1.71,1-3.58,1.59-5.43,1.69
		c-1.25,0.07-2.51-0.05-3.74-0.34c-1.39-0.33-2.7-0.89-3.88-1.64c-1.06-0.68-2.35-0.84-3.53-0.45c-0.27,0.09-0.5,0.19-0.71,0.3
		c-1.33,0.73-2.12,2.07-2.12,3.58v15.73h2.46v-15.73c0-0.62,0.31-1.14,0.84-1.43c0.56-0.3,1.19-0.28,1.74,0.07
		c2.71,1.73,5.85,2.55,9.08,2.37c7.34-0.41,13.93-6.95,14.38-14.29c0.2-3.18-0.56-6.27-2.2-8.94c-0.54-0.89-1.19-1.73-1.91-2.49
		c-2.92-3.11-6.88-4.82-11.14-4.82c-2.94,0-5.8,0.84-8.27,2.43c-0.5,0.32-1.09,0.34-1.63,0.05c-0.57-0.31-0.9-0.86-0.9-1.5v-30.72
		h30.72c1.52,0,2.92-0.83,3.65-2.17c0.72-1.33,0.67-2.87-0.14-4.13c-1.33-2.07-2.04-4.47-2.04-6.94c0-3.58,1.44-6.9,4.05-9.35
		c2.6-2.45,6.02-3.67,9.6-3.45c6.16,0.38,11.64,5.91,11.99,12.07c0.15,2.72-0.54,5.35-1.99,7.63c-0.83,1.31-0.89,2.89-0.15,4.24
		c0.73,1.32,2.07,2.11,3.58,2.11h30.78v30.72c0,1.52,0.83,2.92,2.18,3.65c1.33,0.72,2.87,0.67,4.13-0.14
		c2.07-1.33,4.47-2.04,6.94-2.04c3.58,0,6.9,1.44,9.35,4.05c2.45,2.61,3.68,6.02,3.45,9.61c-0.04,0.67-0.15,1.36-0.32,2.05
		c-0.06,0.25-0.13,0.5-0.21,0.74c-0.09,0.29-0.2,0.58-0.32,0.87c-0.06,0.14-0.12,0.28-0.18,0.42c-0.09,0.2-0.19,0.4-0.29,0.6
		c-0.13,0.25-0.26,0.5-0.46,0.82l-0.06,0.09c-0.07,0.11-0.13,0.22-0.2,0.32c-0.16,0.24-0.33,0.48-0.5,0.71l-0.22,0.29
		c-2.36,2.99-5.85,4.89-9.31,5.08c-2.72,0.14-5.35-0.54-7.63-1.99c-0.4-0.25-0.84-0.44-1.31-0.55c-0.99-0.24-2.03-0.09-2.93,0.4
		c-0.56,0.31-1.03,0.73-1.4,1.27c-0.44,0.63-0.69,1.38-0.71,2.17l0,15.88h2.45v-15.73c0-0.22,0.04-0.43,0.13-0.65
		c0.14-0.33,0.39-0.6,0.71-0.78c0.56-0.31,1.19-0.28,1.74,0.07c2.31,1.48,4.99,2.3,7.74,2.38c0.45,0.01,0.89,0.01,1.34-0.01
		c7.08-0.39,13.51-6.49,14.32-13.6c0.03-0.23,0.05-0.46,0.06-0.69c0.26-4.27-1.2-8.33-4.11-11.44c-2.92-3.11-6.88-4.82-11.14-4.82
		c-2.94,0-5.8,0.84-8.27,2.43c-0.5,0.32-1.09,0.34-1.63,0.05c-0.57-0.31-0.9-0.86-0.9-1.5v-30.72h30.72c1.52,0,2.92-0.83,3.65-2.18
		c0.72-1.33,0.67-2.87-0.14-4.13c-1.33-2.07-2.04-4.47-2.04-6.94c0-0.67,0.05-1.33,0.15-1.99c0.43-2.83,1.78-5.38,3.89-7.37
		c2.61-2.45,6.01-3.68,9.61-3.45c2.03,0.13,4.07,0.83,5.91,2.03c0.16,0.11,0.32,0.21,0.48,0.33c3.3,2.37,5.39,6,5.6,9.71
		c0.02,0.34,0.03,0.68,0.02,1.02c-0.05,2.35-0.74,4.63-2.01,6.61c-0.1,0.16-0.19,0.32-0.27,0.49c-0.24,0.51-0.37,1.05-0.39,1.6
		c-0.03,0.74,0.15,1.48,0.51,2.14c0.72,1.32,2.06,2.12,3.58,2.12h15.73v-2.46H246.77z M185.03,185.03h-30.78
		c-0.62,0-1.14-0.31-1.43-0.84c-0.31-0.56-0.28-1.19,0.07-1.74c1.73-2.71,2.55-5.85,2.37-9.08c-0.41-7.34-6.95-13.93-14.29-14.38
		c-0.33-0.02-0.66-0.03-0.99-0.03c-3.9,0-7.58,1.45-10.45,4.15c-3.11,2.92-4.82,6.88-4.82,11.14c0,2.94,0.84,5.8,2.43,8.27
		c0.32,0.5,0.34,1.09,0.05,1.63c-0.31,0.57-0.86,0.9-1.5,0.9H94.97v-30.72c0-1.52-0.83-2.92-2.18-3.65
		c-1.33-0.72-2.87-0.67-4.13,0.14c-2.07,1.33-4.46,2.04-6.94,2.04c-3.58,0-6.9-1.44-9.35-4.04c-2.45-2.61-3.68-6.02-3.45-9.6
		c0.38-6.16,5.91-11.64,12.07-11.99c2.72-0.15,5.35,0.54,7.63,1.99c1.3,0.83,2.89,0.89,4.24,0.15c1.32-0.73,2.12-2.07,2.12-3.58
		V94.97h30.72c1.52,0,2.92-0.83,3.65-2.18c0.72-1.33,0.67-2.87-0.14-4.13c-1.33-2.07-2.04-4.47-2.04-6.94c0-3.58,1.44-6.9,4.05-9.35
		c2.61-2.45,6.03-3.68,9.6-3.45c6.16,0.38,11.64,5.91,11.99,12.07c0.15,2.72-0.54,5.35-1.99,7.63c-0.83,1.31-0.89,2.89-0.15,4.24
		c0.73,1.33,2.07,2.12,3.58,2.12h30.78v30.78c0,0.62-0.31,1.14-0.84,1.43c-0.56,0.31-1.19,0.28-1.73-0.07
		c-2.71-1.73-5.85-2.55-9.08-2.37c-7.34,0.41-13.93,6.95-14.38,14.29c-0.27,4.27,1.2,8.33,4.12,11.44
		c2.92,3.11,6.88,4.82,11.14,4.82c2.94,0,5.8-0.84,8.27-2.43c0.5-0.32,1.09-0.34,1.63-0.05c0.57,0.31,0.9,0.86,0.9,1.5V185.03z"/>
	<rect id="XMLID_22_" x="92.51" y="6" class="st0" width="2.46" height="5.5"/>
	<rect id="XMLID_34_" x="185.03" y="6" class="st0" width="2.45" height="5.5"/>
</g>
<linearGradient id="XMLID_11_" gradientUnits="userSpaceOnUse" x1="92.5148" y1="92.5148" x2="187.4847" y2="187.4847">
	<stop  offset="0" style="stop-color:#4F2359"/>
	<stop  offset="0.9993" style="stop-color:#B80D4D"/>
</linearGradient>
<path id="XMLID_13_" class="st1" d="M187.48,187.48 M92.51,187.48 M92.51,92.51 M187.48,92.51 M125.69,187.48
	c1.52,0,2.92-0.83,3.65-2.17c0.72-1.33,0.67-2.87-0.14-4.13c-1.33-2.07-2.04-4.47-2.04-6.94c0-3.58,1.44-6.9,4.05-9.35
	c2.6-2.45,6.02-3.67,9.6-3.45c6.16,0.38,11.64,5.91,11.99,12.07c0.15,2.72-0.54,5.35-1.99,7.63c-0.83,1.31-0.89,2.89-0.15,4.24
	c0.73,1.32,2.07,2.11,3.58,2.11h33.23v-33.18c0-1.52-0.83-2.92-2.18-3.65c-1.33-0.72-2.87-0.67-4.13,0.14
	c-2.06,1.33-4.46,2.04-6.94,2.04c-3.58,0-6.9-1.44-9.35-4.04c-2.45-2.61-3.68-6.02-3.45-9.6c0.38-6.16,5.91-11.64,12.07-11.99
	c2.72-0.16,5.35,0.54,7.63,1.99c1.3,0.83,2.89,0.89,4.24,0.15c1.33-0.73,2.12-2.07,2.12-3.58V92.51h-33.23
	c-0.62,0-1.14-0.31-1.43-0.84c-0.31-0.56-0.28-1.19,0.07-1.74c1.73-2.71,2.55-5.85,2.37-9.08c-0.41-7.34-6.95-13.93-14.29-14.38
	c-0.33-0.02-0.66-0.03-0.98-0.03c-3.9,0-7.61,1.47-10.46,4.15c-3.11,2.92-4.82,6.88-4.82,11.14c0,2.94,0.84,5.8,2.43,8.27
	c0.32,0.5,0.34,1.09,0.05,1.63c-0.31,0.57-0.86,0.9-1.5,0.9H92.51v33.23c0,0.62-0.31,1.14-0.84,1.43c-0.56,0.31-1.19,0.28-1.73-0.07
	c-2.71-1.73-5.85-2.55-9.08-2.37c-7.34,0.41-13.93,6.95-14.38,14.29c-0.27,4.27,1.2,8.33,4.11,11.44c2.92,3.11,6.88,4.82,11.14,4.82
	c2.94,0,5.8-0.84,8.27-2.43c0.5-0.32,1.09-0.34,1.63-0.05c0.57,0.31,0.9,0.86,0.9,1.5v33.18H125.69z"/>
</svg>
