<?xml version="1.0" encoding="utf-8"?>
<!-- Generator: Adobe Illustrator 19.0.0, SVG Export Plug-In . SVG Version: 6.00 Build 0)  -->
<svg version="1.1" id="Layer_1" xmlns="http://www.w3.org/2000/svg" xmlns:xlink="http://www.w3.org/1999/xlink" x="0px" y="0px"
	 width="280px" height="280px" viewBox="0 0 280 280" style="enable-background:new 0 0 280 280;" xml:space="preserve">
<style type="text/css">
	.st0{fill-rule:evenodd;clip-rule:evenodd;fill:url(#XMLID_3_);}
	.st1{fill-rule:evenodd;clip-rule:evenodd;fill:url(#XMLID_4_);}
	.st2{fill:#CCCCCC;}
</style>
<g id="XMLID_1_">
	<linearGradient id="XMLID_3_" gradientUnits="userSpaceOnUse" x1="105.992" y1="94.7373" x2="164.0617" y2="152.807">
		<stop  offset="0" style="stop-color:#4F2359"/>
		<stop  offset="0.9993" style="stop-color:#B80D4D"/>
	</linearGradient>
	<path id="XMLID_15_" class="st0" d="M92.28,144.75c0.84,0.35,1.79,0.34,2.62-0.03l20.18-8.88c1.27-0.56,2.09-1.86,2.07-3.28
		c-0.02-1.42-0.87-2.7-2.15-3.23l-5.52-2.28c5.11-12.38,17.06-20.82,30.52-20.82c13.52,0,25.51,8.57,30.58,20.94
		c1.75,4.25,6.14,6.67,10.54,5.79l0.69-0.14c2.81-0.56,5.22-2.4,6.56-4.99c1.35-2.59,1.48-5.67,0.38-8.39
		C180.7,99.7,161.6,86,140.01,86c-21.61,0-40.66,13.28-48.8,33.52l-5.02-2.07c-1.29-0.53-2.76-0.21-3.72,0.81
		c-0.97,1.02-1.25,2.54-0.7,3.85l8.64,20.76C90.77,143.72,91.44,144.4,92.28,144.75z"/>
	<linearGradient id="XMLID_4_" gradientUnits="userSpaceOnUse" x1="115.9374" y1="127.1915" x2="174.0114" y2="185.2655">
		<stop  offset="0" style="stop-color:#4F2359"/>
		<stop  offset="0.9993" style="stop-color:#B80D4D"/>
	</linearGradient>
	<path id="XMLID_16_" class="st1" d="M198.22,157.9l-8.63-20.76c-0.36-0.86-1.03-1.54-1.88-1.88c-0.84-0.35-1.78-0.34-2.62,0.03
		l-20.18,8.88c-1.27,0.56-2.09,1.85-2.08,3.28c0.02,1.42,0.87,2.7,2.15,3.23l5.53,2.28c-5.12,12.38-17.06,20.82-30.52,20.82
		c-13.52,0-25.51-8.57-30.58-20.94c-1.74-4.25-6.14-6.67-10.54-5.79l-0.69,0.14c-2.8,0.56-5.22,2.4-6.56,4.99
		c-1.35,2.59-1.48,5.67-0.37,8.38C99.31,180.3,118.41,194,139.99,194c21.61,0,40.66-13.28,48.8-33.52l5.02,2.07
		c1.28,0.53,2.75,0.21,3.72-0.81C198.49,160.73,198.77,159.21,198.22,157.9z"/>
</g>
<path id="XMLID_20_" class="st2" d="M270.26,226h-9.47v-21.25h-14.95V226H34.16v-21.25H19.21V226H9.74c-3.08,0-5.24-2.6-5.24-6.31
	V60.31C4.5,56.6,6.65,54,9.74,54h9.47v21.25h14.95V54h211.69v21.25h14.95V54h9.47c3.08,0,5.24,2.6,5.24,6.31v159.38
	C275.5,223.4,273.35,226,270.26,226z M262.79,224h7.47c1.97,0,3.24-1.69,3.24-4.31V60.31c0-2.62-1.27-4.31-3.24-4.31h-7.47v21.25
	h-18.95V56H36.16v21.25H17.21V56H9.74c-1.97,0-3.24,1.69-3.24,4.31v159.38c0,2.62,1.27,4.31,3.24,4.31h7.47v-21.25h18.95V224h207.69
	v-21.25h18.95V224z M262.5,189h-19v-23h19V189z M245.5,187h15v-19h-15V187z M36.5,189h-19v-23h19V189z M19.5,187h15v-19h-15V187z
	 M262.5,151h-19v-23h19V151z M245.5,149h15v-19h-15V149z M36.5,151h-19v-23h19V151z M19.5,149h15v-19h-15V149z M262.5,114h-19V91h19
	V114z M245.5,112h15V93h-15V112z M36.5,114h-19V91h19V114z M19.5,112h15V93h-15V112z"/>
</svg>
