<svg id="Layer_1" xmlns="http://www.w3.org/2000/svg" width="24" height="24"><path id="XMLID_5_" d="M16.91 11.56c.03 2.72 2.39 3.63 2.42 3.64-.02.06-.38 1.29-1.25 2.56-.75 1.1-1.53 2.19-2.76 2.21-1.21.02-1.59-.71-2.97-.71-1.38 0-1.81.69-2.95.74-1.18.04-2.09-1.19-2.84-2.28-1.55-2.23-2.73-6.31-1.14-9.07.79-1.37 2.2-2.23 3.72-2.26 1.16-.02 2.26.78 2.97.78.71 0 2.04-.97 3.45-.83.59.02 2.23.24 3.29 1.79-.08.06-1.96 1.16-1.94 3.43m-2.26-6.69c.63-.76 1.05-1.82.93-2.87-.91.04-2 .6-2.65 1.36-.58.67-1.09 1.75-.95 2.78 1.01.09 2.04-.5 2.67-1.27"/></svg>