<svg id="Layer_1" xmlns="http://www.w3.org/2000/svg" width="24" height="24"><path id="XMLID_10_" d="M8.275 20.261c7.552 0 11.682-6.358 11.682-11.868 0-.182 0-.363-.009-.536A8.469 8.469 0 0 0 22 5.694a8.194 8.194 0 0 1-2.358.657 4.156 4.156 0 0 0 1.805-2.31 8.227 8.227 0 0 1-2.605 1.012 4.057 4.057 0 0 0-2.997-1.315c-2.265 0-4.104 1.868-4.104 4.169 0 .329.034.649.111.952C8.437 8.687 5.414 7.026 3.388 4.5a4.24 4.24 0 0 0-.554 2.094 4.17 4.17 0 0 0 1.831 3.469 3.983 3.983 0 0 1-1.856-.519v.052c0 2.024 1.413 3.702 3.295 4.092a4.042 4.042 0 0 1-1.081.147c-.264 0-.519-.026-.775-.078.519 1.661 2.035 2.863 3.831 2.898A8.17 8.17 0 0 1 2 18.376a11.316 11.316 0 0 0 6.275 1.885" fill-rule="evenodd" clip-rule="evenodd"/></svg>