<svg xmlns="http://www.w3.org/2000/svg"><symbol id="autokroma" viewBox="0 0 24 24" xmlns="http://www.w3.org/2000/svg"><style>.ast0{fill-rule:evenodd;clip-rule:evenodd}</style><g id="aXMLID_1_"><path id="aXMLID_2_" class="ast0" d="M11.847 14.5v6h11z"/><path id="aXMLID_6_" class="ast0" d="M11.848 14.499l5.196-3-5.5-9.526z"/><path id="aXMLID_7_" class="ast0" d="M11.849 14.501l-5.196-3-5.5 9.526z"/></g></symbol><symbol viewBox="0 0 24 24" id="cross" xmlns="http://www.w3.org/2000/svg"><path d="M14.12 12l6.93-6.93c.59-.59.59-1.54 0-2.12a1.49 1.49 0 0 0-2.12 0L12 9.88 5.07 2.95a1.49 1.49 0 0 0-2.12 0 1.49 1.49 0 0 0 0 2.12L9.88 12l-6.93 6.93a1.49 1.49 0 0 0 0 2.12c.59.59 1.54.59 2.12 0L12 14.12l6.93 6.93c.59.59 1.54.59 2.12 0 .59-.59.59-1.54 0-2.12L14.12 12z"/></symbol><symbol id="facebook" viewBox="0 0 24 24" xmlns="http://www.w3.org/2000/svg"><path id="cXMLID_1_" d="M20.896 2H3.104C2.494 2 2 2.494 2 3.104v17.792C2 21.506 2.494 22 3.104 22h9.579v-7.745h-2.606v-3.018h2.606V9.011c0-2.583 1.578-3.99 3.882-3.99 1.104 0 2.053.082 2.329.119v2.7h-1.598c-1.253 0-1.496.596-1.496 1.469v1.927h2.989l-.389 3.018h-2.6V22h5.097c.609 0 1.103-.494 1.103-1.104V3.104C22 2.494 21.506 2 20.896 2" fill-rule="evenodd" clip-rule="evenodd"/></symbol><symbol viewBox="0 0 24 24" id="mac" xmlns="http://www.w3.org/2000/svg"><path d="M16.91 11.56c.03 2.72 2.39 3.63 2.42 3.64-.02.06-.38 1.29-1.25 2.56-.75 1.1-1.53 2.19-2.76 2.21-1.21.02-1.59-.71-2.97-.71-1.38 0-1.81.69-2.95.74-1.18.04-2.09-1.19-2.84-2.28-1.55-2.23-2.73-6.31-1.14-9.07.79-1.37 2.2-2.23 3.72-2.26 1.16-.02 2.26.78 2.97.78.71 0 2.04-.97 3.45-.83.59.02 2.23.24 3.29 1.79-.08.06-1.96 1.16-1.94 3.43m-2.26-6.69c.63-.76 1.05-1.82.93-2.87-.91.04-2 .6-2.65 1.36-.58.67-1.09 1.75-.95 2.78 1.01.09 2.04-.5 2.67-1.27"/></symbol><symbol viewBox="0 0 24 24" id="menu" xmlns="http://www.w3.org/2000/svg"><path d="M20.5 13.5h-17c-.83 0-1.5-.67-1.5-1.5s.67-1.5 1.5-1.5h17c.83 0 1.5.67 1.5 1.5s-.67 1.5-1.5 1.5zm0-8h-17C2.67 5.5 2 4.83 2 4s.67-1.5 1.5-1.5h17c.83 0 1.5.67 1.5 1.5s-.67 1.5-1.5 1.5zm0 16h-17c-.83 0-1.5-.67-1.5-1.5s.67-1.5 1.5-1.5h17c.83 0 1.5.67 1.5 1.5s-.67 1.5-1.5 1.5z"/></symbol><symbol viewBox="0 0 24 24" id="more" xmlns="http://www.w3.org/2000/svg"><circle cx="5" cy="12" r="2"/><circle cx="12" cy="12" r="2"/><circle cx="19" cy="12" r="2"/></symbol><symbol id="twitter" viewBox="0 0 24 24" xmlns="http://www.w3.org/2000/svg"><path id="gXMLID_10_" d="M8.275 20.261c7.552 0 11.682-6.358 11.682-11.868 0-.182 0-.363-.009-.536A8.469 8.469 0 0 0 22 5.694a8.194 8.194 0 0 1-2.358.657 4.156 4.156 0 0 0 1.805-2.31 8.227 8.227 0 0 1-2.605 1.012 4.057 4.057 0 0 0-2.997-1.315c-2.265 0-4.104 1.868-4.104 4.169 0 .329.034.649.111.952C8.437 8.687 5.414 7.026 3.388 4.5a4.24 4.24 0 0 0-.554 2.094 4.17 4.17 0 0 0 1.831 3.469 3.983 3.983 0 0 1-1.856-.519v.052c0 2.024 1.413 3.702 3.295 4.092a4.042 4.042 0 0 1-1.081.147c-.264 0-.519-.026-.775-.078.519 1.661 2.035 2.863 3.831 2.898A8.17 8.17 0 0 1 2 18.376a11.316 11.316 0 0 0 6.275 1.885" fill-rule="evenodd" clip-rule="evenodd"/></symbol><symbol viewBox="0 0 24 24" id="windows" xmlns="http://www.w3.org/2000/svg"><path d="M11.33 5.28c2.86-.47 5.78-.88 8.64-1.28v7.59c-2.86 0-5.78.06-8.64.06V5.28zm-7.3 1c2.16-.35 4.32-.64 6.54-.88v6.25c-2.22 0-4.38.06-6.54.06V6.28zm0 6.07c2.16 0 4.32.06 6.54 0v6.31c-2.22-.29-4.38-.58-6.54-.88v-5.43zm7.3.06h8.64V20c-2.86-.47-5.78-.82-8.64-1.23v-6.36z"/></symbol></svg>