<?xml version="1.0" encoding="utf-8"?>
<!-- Generator: Adobe Illustrator 19.0.0, SVG Export Plug-In . SVG Version: 6.00 Build 0)  -->
<svg version="1.1" id="Layer_1" xmlns="http://www.w3.org/2000/svg" xmlns:xlink="http://www.w3.org/1999/xlink" x="0px" y="0px"
	 width="280px" height="280px" viewBox="0 0 280 280" style="enable-background:new 0 0 280 280;" xml:space="preserve">
<style type="text/css">
	.st0{fill:#CCCCCC;}
	.st1{fill-rule:evenodd;clip-rule:evenodd;fill:#FFFFFF;}
</style>
<g id="XMLID_17_">
	<path id="XMLID_24_" class="st0" d="M80,51c-0.55,0-1-0.45-1-1V30c0-0.55,0.45-1,1-1h20c0.55,0,1,0.45,1,1s-0.45,1-1,1H81v19
		C81,50.55,80.55,51,80,51z"/>
	<path id="XMLID_23_" class="st0" d="M80,162c-0.55,0-1-0.45-1-1v-10c0-0.55,0.45-1,1-1s1,0.45,1,1v10C81,161.55,80.55,162,80,162z"
		/>
	<path id="XMLID_22_" class="st0" d="M80,121c-0.55,0-1-0.45-1-1v-10c0-0.55,0.45-1,1-1s1,0.45,1,1v10C81,120.55,80.55,121,80,121z"
		/>
	<path id="XMLID_21_" class="st0" d="M80,81c-0.55,0-1-0.45-1-1V70c0-0.55,0.45-1,1-1s1,0.45,1,1v10C81,80.55,80.55,81,80,81z"/>
	<path id="XMLID_20_" class="st0" d="M129,31h-10c-0.55,0-1-0.45-1-1s0.45-1,1-1h10c0.55,0,1,0.45,1,1S129.55,31,129,31z"/>
	<path id="XMLID_19_" class="st0" d="M171,31h-10c-0.55,0-1-0.45-1-1s0.45-1,1-1h10c0.55,0,1,0.45,1,1S171.55,31,171,31z"/>
	<path id="XMLID_18_" class="st0" d="M251,202h-20c-0.55,0-1-0.45-1-1s0.45-1,1-1h19v-19c0-0.55,0.45-1,1-1s1,0.45,1,1v20
		C252,201.55,251.55,202,251,202z"/>
	<path id="XMLID_16_" class="st0" d="M251,51c-0.55,0-1-0.45-1-1V31h-19c-0.55,0-1-0.45-1-1s0.45-1,1-1h20c0.55,0,1,0.45,1,1v20
		C252,50.55,251.55,51,251,51z"/>
	<path id="XMLID_15_" class="st0" d="M251,162c-0.55,0-1-0.45-1-1v-10c0-0.55,0.45-1,1-1s1,0.45,1,1v10
		C252,161.55,251.55,162,251,162z"/>
	<path id="XMLID_14_" class="st0" d="M251,121c-0.55,0-1-0.45-1-1v-10c0-0.55,0.45-1,1-1s1,0.45,1,1v10
		C252,120.55,251.55,121,251,121z"/>
	<path id="XMLID_13_" class="st0" d="M251,81c-0.55,0-1-0.45-1-1V70c0-0.55,0.45-1,1-1s1,0.45,1,1v10C252,80.55,251.55,81,251,81z"
		/>
	<path id="XMLID_10_" class="st0" d="M211,31h-10c-0.55,0-1-0.45-1-1s0.45-1,1-1h10c0.55,0,1,0.45,1,1S211.55,31,211,31z"/>
	<path id="XMLID_9_" class="st0" d="M129,202h-10c-0.55,0-1-0.45-1-1s0.45-1,1-1h10c0.55,0,1,0.45,1,1S129.55,202,129,202z"/>
	<path id="XMLID_8_" class="st0" d="M171,202h-10c-0.55,0-1-0.45-1-1s0.45-1,1-1h10c0.55,0,1,0.45,1,1S171.55,202,171,202z"/>
	<path id="XMLID_7_" class="st0" d="M211,202h-10c-0.55,0-1-0.45-1-1s0.45-1,1-1h10c0.55,0,1,0.45,1,1S211.55,202,211,202z"/>
</g>
<path id="XMLID_25_" class="st0" d="M200.21,79.55c-0.39-0.39-1.02-0.4-1.41-0.01l-58.79,57.81l0.25-48.34c0-0.55-0.44-1-0.99-1.01
	c0,0,0,0-0.01,0c-0.55,0-1,0.44-1,0.99L138,139.74c0,0.27,0.1,0.52,0.29,0.71c0.19,0.19,0.44,0.29,0.71,0.3l51,0.26c0,0,0,0,0,0
	c0.55,0,1-0.44,1-1c0-0.55-0.44-1-1-1l-48.57-0.25l58.77-57.79C200.59,80.58,200.6,79.94,200.21,79.55z"/>
<g id="XMLID_2_">
	<g id="XMLID_11_">
		<defs>
			<path id="XMLID_12_" d="M36,159h77c3.87,0,7,3.13,7,7v77c0,3.87-3.13,7-7,7H36c-3.87,0-7-3.13-7-7v-77
				C29,162.13,32.13,159,36,159z"/>
		</defs>
		<linearGradient id="XMLID_4_" gradientUnits="userSpaceOnUse" x1="31.0503" y1="161.0502" x2="117.9497" y2="247.9498">
			<stop  offset="0" style="stop-color:#4F2359"/>
			<stop  offset="0.9993" style="stop-color:#B80D4D"/>
		</linearGradient>
		<use xlink:href="#XMLID_12_"  style="overflow:visible;fill-rule:evenodd;clip-rule:evenodd;fill:url(#XMLID_4_);"/>
		<clipPath id="XMLID_5_">
			<use xlink:href="#XMLID_12_"  style="overflow:visible;"/>
		</clipPath>
	</g>
	<path id="XMLID_3_" class="st1" d="M63.36,189.21l24.23,13.99c1.05,0.6,1.05,2.12,0,2.72l-24.23,13.99
		c-1.05,0.6-2.36-0.15-2.36-1.36v-27.98C61,189.36,62.31,188.61,63.36,189.21"/>
</g>
</svg>
